<?xml version="1.0" encoding="UTF-8"?> <!-- Generator: Adobe Illustrator 23.0.6, SVG Export Plug-In . SVG Version: 6.00 Build 0) --> <svg xmlns="http://www.w3.org/2000/svg" xmlns:xlink="http://www.w3.org/1999/xlink" id="Calque_1" x="0px" y="0px" viewBox="0 0 50 50" style="enable-background:new 0 0 50 50;" xml:space="preserve"> <style type="text/css"> .st0{fill:#FFFFFF;} .st1{fill:#283582;} .st2{fill:#94A2AB;} </style> <rect width="50" height="50"></rect> <g> <g> <path class="st0" d="M9.97,41.56H9.8v-0.04c0-0.04-0.01-0.07-0.03-0.1c-0.02-0.03-0.05-0.04-0.09-0.04c-0.02,0-0.04,0-0.06,0.01 c-0.01,0.01-0.03,0.02-0.03,0.03c-0.01,0.01-0.01,0.03-0.02,0.05c0,0.02,0,0.04,0,0.06c0,0.02,0,0.04,0,0.06 c0,0.02,0.01,0.03,0.01,0.04c0.01,0.01,0.02,0.02,0.03,0.03c0.01,0.01,0.03,0.02,0.05,0.03l0.13,0.05 c0.04,0.01,0.07,0.03,0.09,0.05c0.02,0.02,0.04,0.04,0.05,0.07c0.01,0.03,0.02,0.06,0.02,0.09s0.01,0.07,0.01,0.11 c0,0.05,0,0.1-0.01,0.14c-0.01,0.04-0.03,0.08-0.05,0.11c-0.02,0.03-0.05,0.06-0.09,0.07c-0.04,0.02-0.08,0.03-0.14,0.03 c-0.04,0-0.08-0.01-0.11-0.02c-0.04-0.01-0.07-0.03-0.09-0.06c-0.03-0.03-0.05-0.05-0.06-0.09s-0.02-0.07-0.02-0.11v-0.06h0.17 v0.05c0,0.03,0.01,0.06,0.03,0.08c0.02,0.02,0.05,0.04,0.09,0.04c0.03,0,0.05,0,0.07-0.01c0.02-0.01,0.03-0.02,0.04-0.04 c0.01-0.02,0.01-0.03,0.02-0.06c0-0.02,0-0.05,0-0.07c0-0.03,0-0.06,0-0.08c0-0.02-0.01-0.04-0.01-0.05 c-0.01-0.01-0.02-0.02-0.03-0.03c-0.01-0.01-0.03-0.02-0.05-0.02l-0.12-0.05c-0.07-0.03-0.12-0.07-0.15-0.12 c-0.02-0.05-0.04-0.11-0.04-0.18c0-0.04,0.01-0.09,0.02-0.13c0.01-0.04,0.03-0.07,0.05-0.1c0.02-0.03,0.05-0.05,0.09-0.07 c0.04-0.02,0.08-0.03,0.13-0.03c0.04,0,0.08,0.01,0.11,0.02s0.06,0.04,0.09,0.06c0.05,0.05,0.08,0.11,0.08,0.18V41.56z"></path> <path class="st0" d="M10.28,42.4l0.26-1.18h0.14l0.26,1.18h-0.17l-0.05-0.25h-0.23l-0.05,0.25H10.28z M10.69,41.99l-0.08-0.43h0 l-0.08,0.43H10.69z"></path> <path class="st0" d="M11.28,42.4v-1.18h0.17v1.18H11.28z"></path> <path class="st0" d="M11.86,42.4v-1.18h0.16l0.25,0.71h0v-0.71h0.17v1.18h-0.16l-0.26-0.71h0v0.71H11.86z"></path> <path class="st0" d="M12.97,42.4v-1.02h-0.2v-0.16h0.56v0.16h-0.2v1.02H12.97z"></path> <path class="st0" d="M13.55,42.03v-0.17h0.5v0.17H13.55z"></path> <path class="st0" d="M14.46,42.4v-1.18h0.5v0.16h-0.33v0.36h0.29v0.16h-0.29v0.5H14.46z"></path> <path class="st0" d="M15.31,41.5c0-0.05,0.01-0.09,0.02-0.13c0.02-0.04,0.04-0.07,0.07-0.09c0.03-0.02,0.06-0.04,0.09-0.05 c0.03-0.01,0.07-0.02,0.1-0.02s0.07,0.01,0.1,0.02c0.03,0.01,0.06,0.03,0.09,0.05c0.03,0.02,0.05,0.05,0.06,0.09 c0.02,0.04,0.02,0.08,0.02,0.13v0.62c0,0.05-0.01,0.09-0.02,0.13c-0.02,0.04-0.04,0.06-0.06,0.09c-0.03,0.02-0.06,0.04-0.09,0.05 c-0.03,0.01-0.07,0.02-0.1,0.02s-0.07-0.01-0.1-0.02c-0.03-0.01-0.06-0.03-0.09-0.05c-0.03-0.02-0.05-0.05-0.07-0.09 c-0.02-0.04-0.02-0.08-0.02-0.13V41.5z M15.48,42.12c0,0.04,0.01,0.07,0.03,0.09s0.05,0.03,0.08,0.03s0.06-0.01,0.08-0.03 c0.02-0.02,0.03-0.05,0.03-0.09V41.5c0-0.04-0.01-0.07-0.03-0.09c-0.02-0.02-0.05-0.03-0.08-0.03s-0.06,0.01-0.08,0.03 s-0.03,0.05-0.03,0.09V42.12z"></path> <path class="st0" d="M16.27,42.4v-1.18h0.16l0.25,0.71h0v-0.71h0.17v1.18H16.7l-0.26-0.71h0v0.71H16.27z"></path> <path class="st0" d="M17.81,41.56h-0.17v-0.04c0-0.04-0.01-0.07-0.03-0.1c-0.02-0.03-0.05-0.04-0.09-0.04 c-0.02,0-0.04,0-0.06,0.01c-0.01,0.01-0.03,0.02-0.03,0.03c-0.01,0.01-0.01,0.03-0.02,0.05c0,0.02,0,0.04,0,0.06 c0,0.02,0,0.04,0,0.06c0,0.02,0.01,0.03,0.01,0.04c0.01,0.01,0.02,0.02,0.03,0.03c0.01,0.01,0.03,0.02,0.05,0.03l0.13,0.05 c0.04,0.01,0.07,0.03,0.09,0.05c0.02,0.02,0.04,0.04,0.05,0.07c0.01,0.03,0.02,0.06,0.02,0.09s0.01,0.07,0.01,0.11 c0,0.05,0,0.1-0.01,0.14s-0.03,0.08-0.05,0.11c-0.02,0.03-0.05,0.06-0.09,0.07c-0.04,0.02-0.08,0.03-0.14,0.03 c-0.04,0-0.08-0.01-0.11-0.02c-0.04-0.01-0.07-0.03-0.09-0.06c-0.03-0.03-0.05-0.05-0.06-0.09c-0.01-0.03-0.02-0.07-0.02-0.11 v-0.06h0.17v0.05c0,0.03,0.01,0.06,0.03,0.08c0.02,0.02,0.05,0.04,0.09,0.04c0.03,0,0.05,0,0.07-0.01 c0.02-0.01,0.03-0.02,0.04-0.04c0.01-0.02,0.01-0.03,0.02-0.06c0-0.02,0-0.05,0-0.07c0-0.03,0-0.06,0-0.08 c0-0.02-0.01-0.04-0.01-0.05c-0.01-0.01-0.02-0.02-0.03-0.03c-0.01-0.01-0.03-0.02-0.05-0.02l-0.12-0.05 c-0.07-0.03-0.12-0.07-0.15-0.12c-0.02-0.05-0.04-0.11-0.04-0.18c0-0.04,0.01-0.09,0.02-0.13c0.01-0.04,0.03-0.07,0.05-0.1 c0.02-0.03,0.05-0.05,0.09-0.07c0.04-0.02,0.08-0.03,0.13-0.03c0.04,0,0.08,0.01,0.11,0.02s0.06,0.04,0.09,0.06 c0.05,0.05,0.08,0.11,0.08,0.18V41.56z"></path> <path class="st0" d="M18.63,41.5c0-0.05,0.01-0.09,0.02-0.13c0.02-0.04,0.04-0.07,0.07-0.09c0.03-0.02,0.06-0.04,0.09-0.05 c0.03-0.01,0.07-0.02,0.1-0.02s0.07,0.01,0.1,0.02c0.03,0.01,0.06,0.03,0.09,0.05c0.03,0.02,0.05,0.05,0.06,0.09 c0.02,0.04,0.02,0.08,0.02,0.13v0.06h-0.17V41.5c0-0.04-0.01-0.07-0.03-0.09c-0.02-0.02-0.05-0.03-0.08-0.03s-0.06,0.01-0.08,0.03 c-0.02,0.02-0.03,0.05-0.03,0.09v0.62c0,0.04,0.01,0.07,0.03,0.09c0.02,0.02,0.05,0.03,0.08,0.03s0.06-0.01,0.08-0.03 c0.02-0.02,0.03-0.05,0.03-0.09V41.9h-0.13v-0.15h0.3v0.37c0,0.05-0.01,0.09-0.02,0.13c-0.02,0.04-0.04,0.06-0.06,0.09 c-0.03,0.02-0.06,0.04-0.09,0.05c-0.03,0.01-0.07,0.02-0.1,0.02s-0.07-0.01-0.1-0.02c-0.03-0.01-0.06-0.03-0.09-0.05 c-0.03-0.02-0.05-0.05-0.07-0.09c-0.02-0.04-0.02-0.08-0.02-0.13V41.5z"></path> <path class="st0" d="M19.6,42.4v-1.18h0.5v0.16h-0.33v0.35h0.29v0.16h-0.29v0.35h0.33v0.17H19.6z"></path> <path class="st0" d="M20.46,42.4v-1.18h0.27c0.2,0,0.3,0.12,0.3,0.35c0,0.07-0.01,0.13-0.03,0.18c-0.02,0.05-0.06,0.09-0.11,0.12 l0.18,0.54h-0.18l-0.16-0.5h-0.1v0.5H20.46z M20.63,41.38v0.37h0.1c0.03,0,0.05,0,0.07-0.01c0.02-0.01,0.03-0.02,0.04-0.04 c0.01-0.02,0.01-0.03,0.02-0.06s0-0.05,0-0.08c0-0.03,0-0.06,0-0.08s-0.01-0.04-0.02-0.06c-0.02-0.03-0.06-0.05-0.12-0.05H20.63z"></path> <path class="st0" d="M21.42,42.4v-1.18h0.17v1.01h0.33v0.17H21.42z"></path> <path class="st0" d="M22.21,42.4l0.26-1.18h0.14l0.26,1.18h-0.17l-0.05-0.25h-0.23l-0.05,0.25H22.21z M22.63,41.99l-0.08-0.43h0 l-0.08,0.43H22.63z"></path> <path class="st0" d="M23.2,42.4v-1.18h0.16l0.25,0.71h0v-0.71h0.17v1.18h-0.16l-0.26-0.71h0v0.71H23.2z"></path> <path class="st0" d="M24.2,42.4v-1.18h0.25c0.1,0,0.17,0.03,0.22,0.08c0.05,0.05,0.08,0.13,0.08,0.23v0.55 c0,0.11-0.03,0.19-0.08,0.24c-0.05,0.05-0.13,0.08-0.23,0.08H24.2z M24.37,41.38v0.86h0.08c0.05,0,0.08-0.01,0.1-0.04 c0.02-0.02,0.03-0.06,0.03-0.11v-0.57c0-0.05-0.01-0.08-0.03-0.11c-0.02-0.03-0.05-0.04-0.1-0.04H24.37z"></path> <path class="st0" d="M26.15,41.56h-0.17v-0.04c0-0.04-0.01-0.07-0.03-0.1c-0.02-0.03-0.05-0.04-0.09-0.04 c-0.02,0-0.04,0-0.06,0.01c-0.01,0.01-0.03,0.02-0.03,0.03c-0.01,0.01-0.01,0.03-0.02,0.05c0,0.02,0,0.04,0,0.06 c0,0.02,0,0.04,0,0.06c0,0.02,0.01,0.03,0.01,0.04s0.02,0.02,0.03,0.03c0.01,0.01,0.03,0.02,0.05,0.03l0.13,0.05 c0.04,0.01,0.07,0.03,0.09,0.05c0.02,0.02,0.04,0.04,0.05,0.07c0.01,0.03,0.02,0.06,0.02,0.09s0.01,0.07,0.01,0.11 c0,0.05,0,0.1-0.01,0.14c-0.01,0.04-0.03,0.08-0.05,0.11c-0.02,0.03-0.05,0.06-0.09,0.07c-0.04,0.02-0.08,0.03-0.14,0.03 c-0.04,0-0.08-0.01-0.11-0.02c-0.04-0.01-0.07-0.03-0.09-0.06c-0.03-0.03-0.05-0.05-0.06-0.09c-0.01-0.03-0.02-0.07-0.02-0.11 v-0.06h0.17v0.05c0,0.03,0.01,0.06,0.03,0.08c0.02,0.02,0.05,0.04,0.09,0.04c0.03,0,0.05,0,0.07-0.01 c0.02-0.01,0.03-0.02,0.04-0.04c0.01-0.02,0.01-0.03,0.02-0.06c0-0.02,0-0.05,0-0.07c0-0.03,0-0.06,0-0.08 c0-0.02-0.01-0.04-0.01-0.05c-0.01-0.01-0.02-0.02-0.03-0.03c-0.01-0.01-0.03-0.02-0.05-0.02l-0.12-0.05 c-0.07-0.03-0.12-0.07-0.15-0.12c-0.02-0.05-0.04-0.11-0.04-0.18c0-0.04,0.01-0.09,0.02-0.13c0.01-0.04,0.03-0.07,0.05-0.1 c0.02-0.03,0.05-0.05,0.09-0.07c0.04-0.02,0.08-0.03,0.13-0.03c0.04,0,0.08,0.01,0.11,0.02s0.06,0.04,0.09,0.06 c0.05,0.05,0.08,0.11,0.08,0.18V41.56z"></path> <path class="st0" d="M26.45,42.4l0.26-1.18h0.14l0.26,1.18h-0.17l-0.05-0.25h-0.23l-0.05,0.25H26.45z M26.87,41.99l-0.08-0.43h0 l-0.08,0.43H26.87z"></path> <path class="st0" d="M27.97,41.22l-0.24,1.18h-0.15l-0.24-1.18h0.18l0.13,0.82h0l0.14-0.82H27.97z"></path> <path class="st0" d="M28.18,42.4l0.26-1.18h0.14l0.26,1.18h-0.17l-0.05-0.25H28.4l-0.05,0.25H28.18z M28.6,41.99l-0.08-0.43h0 l-0.08,0.43H28.6z"></path> <path class="st0" d="M29.21,42.4v-1.02h-0.2v-0.16h0.56v0.16h-0.2v1.02H29.21z"></path> <path class="st0" d="M29.9,42.4v-1.18h0.5v0.16h-0.33v0.35h0.29v0.16h-0.29v0.35h0.33v0.17H29.9z"></path> </g> <g> <defs> <path id="SVGID_3_" d="M8.36,17.33h1.36v3.18H7.86v-1.33H6.18v3.5h1.84v1.85H6.18v3.2v1.85H4.33H3v-1.85h1.33v-8.56H3v-1.85h4.43 H8.36z M3.79,9.6l2.77,1.28v3.71H4.91v-2.15H3.06v2.15v0.15v0.35c0,0.75,0.61,1.36,1.36,1.36h2.15h0.5 c0.75,0,1.36-0.61,1.36-1.36v-0.5v-3.83h0C8.49,10.19,8.2,9.6,7.64,9.34L4.87,8.06V6.04h1.65v1.33h1.85V6.04V4.19H6.52H4.37 c-0.75,0-1.36,0.61-1.36,1.36v0.32v0.18v2.1h0C2.92,8.73,3.22,9.34,3.79,9.6z M4.36,30.53C3.61,30.53,3,31.14,3,31.88v0.32v0.18 v8.56v0.5c0,0.75,0.61,1.36,1.36,1.36h0.5H6.5H7c0.75,0,1.36-0.61,1.36-1.36v-0.5v-3.2v-1.85H6.5H5.68v1.85H6.5v3.2H4.85v-8.56 H6.5v1.33h1.85v-1.33v-1.85H6.5H4.36z"></path> </defs> <use xlink:href="#SVGID_3_" style="overflow:visible;fill:#FFFFFF;"></use> <clipPath id="SVGID_2_"> <use xlink:href="#SVGID_3_" style="overflow:visible;"></use> </clipPath> </g> <path class="st0" d="M15.68,25.9c-1.5-0.95-1.09-2.14-1.09-2.14s0.03-0.01,0.24-0.02c0.21-0.01,0.43-0.22,0.61-0.28 c0.18-0.06,1,0.13,1,0.13l-0.88,0.18C15.4,24.28,15.45,25.22,15.68,25.9z M16.34,25.45c1.9,0.9,3.69,3.32,4.13,5.61 c0.04-0.27,0.12-0.54,0.23-0.78l0.15-0.38C20.13,27.73,18.39,25.93,16.34,25.45z M21.52,32.96c0.25,0.14,0.62,0.2,1.14,0.17 c0.78-0.04,1.81-0.25,2.53-1.21c1.09-1.45,0.71-3.75,0.16-5.35c0.15,1.06,0.17,2.14-0.08,3c-0.03-0.26-0.1-0.54-0.23-0.76 c-0.05,0.71-0.05,1.41-0.63,2.55c0,0-0.65-0.23-1.23-1.43c-0.24,1.16,0.18,2.01,0.18,2.01s-0.22-0.06-0.31-0.29 c-1.06,0.27-1.35-0.02-1.35-0.02s-0.01,0.15,0.01,0.34c-0.25-0.35-0.48-0.63-0.53-1.48C20.77,31.47,20.91,32.61,21.52,32.96z M28.37,33.71c-0.77,0.85-0.95,2.19-0.99,2.95c-0.96-2.18,0.34-3.63,0.65-5.27c0.17,0.58,0.2,1.08,0.2,1.08s0.4-1.09,0.15-2.43 c-0.24-1.34-0.99-2.16-0.99-2.16c0.47,1.87-0.25,3.99-1.69,5.25c0.13-0.26,0.26-0.57,0.32-0.88c-1.05,0.96-3.49,1.74-4.8,1.06 c0,0,0.31,0.72,0.58,0.81c0.26,0.09,0.9-0.17,0.9-0.17c-0.05,0.17-0.48,0.58-0.66,0.64c0.14,1.2,1.51,2.59,2.53,2.87 c0,0-0.24-0.57-0.34-1.23c0.99,1.01,2.87,1.79,4.26,2.08C27.9,37.02,28.07,34.82,28.37,33.71z M15.05,21.07 c-0.01-0.45-0.06-0.97-0.15-1.09c-0.16-0.21-1.16-0.47-1.51-0.5c-0.36-0.03-0.45,0.15-0.61,0.24c-0.06,0.35,0.28,1.56,0.61,2.24 C13.97,23.24,15.11,22.51,15.05,21.07z M20.02,25.52c-0.2-0.7-0.03-1.72,0.3-2.37c-0.47,0.11-0.93,0.34-1.29,0.37 C18.8,24.29,19.4,25.16,20.02,25.52z M37.48,15.7c1.48,0.04,3.34,0.36,4.02,0.66c-1.23-1.71-3.22-2.73-4.74-3.35 c1.57-0.04,3.95-0.32,5.49-0.06c-1.41-1.03-4.98-2.56-8.21-2.94c-3.8-0.45-7.24,0.51-7.98,3.23c1.3-1.11,4.22-1.52,5.91-1.4 c-2.17,0.67-4.01,2.01-4.14,4.06c0.51,0,2.16,0.02,2.97,0.18c-0.34-0.35-1.08-0.61-1.68-0.77c0,0,0.67-0.15,1.57,0.13 c-0.36-0.3-0.94-0.63-1.66-0.57c2.16-2.03,2.38-1.62,5.38-2.43c0.31,0.16,0.54,0.39,0.74,0.67c0.73,1.09,0.59,2.94-0.64,3.94 c2.75-0.01,4.22,0.53,6.57,1.48C40.22,17.43,38.79,16.47,37.48,15.7z M31.52,16.14c-0.02,0.57-1.04,0.75-2.01,0.82 c1.34,1.53,4.71,0.63,5.05-0.81c-0.48,0.39-1.37,0.54-1.37,0.54c1.24-0.71,1.26-2.46,0.69-2.97c-1.1,0.14-2.69,0.34-3.25,0.83 C30.93,14.84,31.6,15.52,31.52,16.14z M45.43,13.2c-0.24,0.12-0.56,0.25-0.95,0.34c-0.53,0.12-0.99,0.1-1.31,0.06 c1.35,1.02,2.23,2.05,2.76,2.78c0.71,0.98,1.18,1.92,1.42,2.4c0.28,0.57,0.49,1.07,0.64,1.45c-0.49-0.24-0.98-0.48-1.47-0.72 c0.36,0.63,0.92,1.81,1.06,3.39c0.15,1.6-0.2,2.86-0.44,3.55c-0.03-0.26-0.11-0.65-0.34-1.08c-0.21-0.4-0.46-0.68-0.64-0.85 c0.08,0.79,0.23,1.69,0.47,2.65c0.17,0.67,0.37,1.29,0.57,1.84c-0.34-0.47-0.79-1.01-1.39-1.54c-0.28-0.24-0.55-0.45-0.81-0.63 c0.22,0.91,0.4,2.14,0.3,3.58c-0.18,2.77-1.29,4.81-1.96,5.85c0.03-0.58,0.02-1.32-0.12-2.14c-0.17-1.03-0.48-1.87-0.76-2.49 c0.08,0.91,0.08,2.38-0.41,4.08c-0.48,1.67-1.25,2.89-1.79,3.62c0.01-0.35,0-0.81-0.07-1.35c-0.1-0.79-0.45-1.88-0.45-1.88 s-1.19,1.89-1.68,3.09c-0.38,0.92-0.81,2.43-0.61,4.52c-0.32-0.07-0.74-0.21-1.12-0.53c-0.75-0.62-0.9-1.51-0.98-1.49 c-0.08,0.03,0.12,0.87,0.37,2.2c0.13,0.66,0.24,1.33,0.34,2.1c0.01,0.09,0.16,1.29,0.12,1.29c0,0-0.01,0-0.01,0 c-0.09-0.13-2.64-1.83-4.66-5.44c-0.37-0.66-0.83-1.58-1.26-2.76c-1.88-3.79,0.93-7.53-0.08-13.07c0.86,0.45,1.9,1.71,2.2,3.34 c0.64-3.32-0.71-7.97-4.12-9.28c0.16,0.89,0.65,2.19,0.24,3.19c-1.57-3.4-5.48-4.4-8.32-4.01c1.05,0.09,3.33,0.5,4.21,2.24 c0,0-1.92-1.02-3.65-0.86c1.95,0.44,4.29,2.21,4.42,4.42c-0.64-1.53-2.28-2.8-4.22-2.77c0,0-0.57-0.5-1.58-0.34 c0.75,0.22,1.1,0.69,1.1,0.69c-0.61,0.7-4.97,0.84-4.98-1.62c0-0.3,0.03-0.64,0.17-0.88c0.27-0.48,1.78-0.81,2.26-0.79 c0.47,0.02,0.9,0.3,0.9,0.3s0.25-0.28-0.07-0.77c-0.31-0.49-1.36-0.96-1.36-0.96s-0.03,0.28-0.18,0.36 c-0.09,0.05-1.17,0.49-1.93,0.8c-0.61-0.15-1.93-0.67-0.94-1.33l2.82-1.9c0.85-0.58,1.55-0.95,1.78-1.61l-1.26,0.49 c0.38-0.55,1-1.4,1.51-1.8c0.01-0.01,0.02-0.02,0.04-0.03c-0.21-0.97-0.2-1.39,0.31-2.13c0.56-0.79,1.75-1.69,2.79-2.26 c-0.59,1.23-0.86,1.77-0.4,2.54c0.82-1.97,1.52-2.85,5.04-3.14c-0.86,0.5-1.86,1.38-1.85,2.3c1.02-1.1,2.83-1.59,4.81-1.7 c1.3-0.07,2.91-0.19,5.82,0.56C38.1,9.65,41.53,10.8,45.43,13.2z M24.72,15.21c-0.74-0.22-2.47-0.11-2.88-0.08 c-0.4,0.03-0.58,0.45-0.85,0.58c-0.26,0.14-2.69,1.42-2.69,1.42c1.27-0.48,2.33-0.76,3.31-1.07c0.13-0.04,2.31,0.15,2.51,0.09 c0.2-0.06,0.56-0.46,0.69-0.5c0.13-0.03,0.89,0.09,0.89,0.09S25.46,15.43,24.72,15.21z M34.24,36.15c0.13-2.56,0.56-4.77,1.04-6.54 c0.57,0.67,0.9,2.27,1.02,3.14c0.69-2.92-0.28-6.93-2.78-9.24c0.7,3.16,0.21,7.49-0.85,10.51c-0.37-1.99-1.26-3.54-1.26-3.54 c-0.41,1.17-1.3,4.25-0.35,8.03c0.95,3.79,3.21,6.09,4.13,6.93C34.6,43.15,34.05,39.95,34.24,36.15z M33.98,19.95 c8.25,11.22-0.14,16.85,2.76,22.57c-0.24-4.16,2.18-5.87,3.02-8.56c0.43,0.4,0.85,2.95,0.95,3.13 C43.02,29.17,39.07,23.16,33.98,19.95z M43.65,25.12c0.66,0.22,1.53,0.84,2.12,1.24c-1.4-4.68-6.62-8.42-11.46-8.54 c3.06,1.13,5.07,3.84,6.17,5.4c-0.74-0.28-1.83-0.33-1.83-0.33c2.81,2.75,5.09,7.48,5.28,10.98 C44.94,30.92,44.67,27.25,43.65,25.12z M46.84,24.12c-0.13-2.27-0.73-3.94-2.04-5.97c0.55,0.08,1.38,0.48,1.55,0.56 c-1.5-2.97-3.66-4.28-6.38-5.16c2.13,1.58,2.55,2.58,3.24,3.72c-1.11-0.16-2.46-0.2-2.46-0.2C44.19,19.57,45.59,21.31,46.84,24.12z "></path> <path class="st0" d="M24.36,39.19c-3.99,0-7.86-1.44-10.87-4.04c-2.99-2.58-4.97-6.14-5.57-10.02l0.28-0.04 c0.6,3.81,2.54,7.31,5.48,9.84c2.97,2.56,6.76,3.97,10.69,3.97c1.88,0,3.72-0.32,5.48-0.94l0.1,0.27 C28.15,38.87,26.27,39.19,24.36,39.19z M8.01,22.11l-0.29-0.01c0.01-0.33,0.03-0.67,0.06-1.03l0.29,0.02 C8.03,21.46,8.01,21.79,8.01,22.11z M9.04,16.81l-0.27-0.1c1.18-3.14,3.25-5.83,6.01-7.77c2.82-1.99,6.13-3.04,9.59-3.04 c3.17,0,6.25,0.9,8.92,2.59l-0.15,0.24c-2.62-1.66-5.65-2.54-8.76-2.54c-3.4,0-6.66,1.03-9.42,2.99 C12.23,11.08,10.19,13.72,9.04,16.81z"></path> </g> </svg> 